<?xml version="1.0" standalone="no"?>
<!DOCTYPE svg PUBLIC "-//W3C//DTD SVG 20010904//EN"
 "http://www.w3.org/TR/2001/REC-SVG-20010904/DTD/svg10.dtd">
<svg version="1.0" xmlns="http://www.w3.org/2000/svg"
 width="1024.000000pt" height="1024.000000pt" viewBox="0 0 1024.000000 1024.000000"
 preserveAspectRatio="xMidYMid meet">
<metadata>
Created by potrace 1.14, written by Peter Selinger 2001-2017
</metadata>
<g transform="translate(0.000000,1024.000000) scale(0.100000,-0.100000)"
fill="#000000" stroke="none">
<path d="M0 5120 l0 -5120 5120 0 5120 0 0 5120 0 5120 -5120 0 -5120 0 0
-5120z m4492 2395 c231 -55 403 -226 463 -460 13 -53 14 -284 12 -1920 -1
-1023 -6 -1873 -10 -1889 -36 -135 -98 -245 -188 -338 -92 -93 -208 -155 -344
-183 -49 -11 -206 -13 -239 -4 -17 4 -47 11 -66 14 -19 3 -48 13 -64 21 -16 7
-34 14 -40 14 -36 0 -276 193 -276 221 0 5 -13 28 -28 52 -15 25 -34 62 -41
84 l-13 40 -112 0 c-109 0 -224 21 -253 45 -7 6 -13 7 -13 3 0 -8 -114 56
-118 67 -2 4 -8 8 -13 8 -24 0 -130 108 -176 179 -79 121 -105 217 -107 389
l-1 113 -55 31 c-187 103 -322 274 -377 478 -24 89 -23 300 1 390 44 163 153
316 289 405 31 21 57 44 57 52 0 7 -7 30 -16 51 -66 153 -65 385 3 552 69 171
213 322 370 392 42 19 44 21 37 51 -12 48 -9 176 5 238 33 142 153 302 286
381 71 42 179 77 256 82 30 2 56 5 60 5 3 1 13 24 24 53 28 78 62 134 124 201
51 55 177 147 201 147 6 0 18 5 28 10 55 33 242 47 334 25z m1542 -9 c97 -27
175 -74 256 -156 78 -77 129 -155 151 -228 7 -23 15 -42 18 -43 3 0 28 -2 55
-4 148 -11 270 -69 382 -181 144 -146 203 -324 170 -511 l-7 -41 73 -36 c81
-41 120 -69 185 -136 140 -144 215 -340 208 -544 -2 -50 -5 -98 -8 -106 -2 -8
-7 -32 -12 -52 -4 -21 -18 -63 -30 -95 l-23 -56 59 -39 c56 -36 128 -101 176
-159 39 -49 105 -186 117 -244 4 -16 9 -41 12 -55 12 -51 11 -237 -2 -300 -46
-225 -190 -418 -388 -520 l-51 -27 -1 -114 c0 -63 -6 -141 -13 -174 -15 -72
-80 -209 -122 -256 -168 -192 -314 -261 -546 -262 l-112 0 -6 -26 c-13 -54
-81 -158 -144 -222 -92 -93 -218 -168 -311 -184 -18 -3 -37 -8 -42 -11 -5 -3
-52 -7 -103 -9 -199 -6 -364 58 -504 195 -42 42 -83 89 -91 105 -8 17 -19 37
-25 45 -7 8 -22 40 -34 70 -51 131 -49 50 -50 2025 0 2040 -5 1896 66 2045 28
58 54 93 114 151 95 92 190 143 309 166 13 2 26 6 28 8 10 9 194 -5 246 -19z"/>
</g>
</svg>
